# xmcd
#
# Track frame offsets: 
#        150
#        24572
#        47925
#        69901
#        102930
#        124530
#        142100
#        162921
#        182497
#        202860
#        225997
#        247785
#
# Disc length: 3575 seconds
#
# Revision: 2
# Processed by: cddbd v1.5.2PL0 Copyright (c) Steve Scherf et al.
# Submitted via: ExactAudioCopyFreeDBPlugin 1.0
#
DISCID=930df50c
DTITLE=林霞 - DTS51高原蓝
DYEAR=2010
DGENRE=DTS
TTITLE0=高原蓝
TTITLE1=天堂里的阿妈
TTITLE2=我要去西藏
TTITLE3=套马杆
TTITLE4=姑娘我爱你
TTITLE5=遇上你是我的缘
TTITLE6=我的未来不是梦
TTITLE7=家乡
TTITLE8=爱情重点
TTITLE9=风雨彩虹铿锵玫瑰
TTITLE10=再回首
TTITLE11=坐上火车去拉萨
EXTD=
EXTT0=
EXTT1=
EXTT2=
EXTT3=
EXTT4=
EXTT5=
EXTT6=
EXTT7=
EXTT8=
EXTT9=
EXTT10=
EXTT11=
PLAYORDER=
